HIERARCHY
ROOT Hips
{
	OFFSET 0.000000 0.000000 0.000000
	CHANNELS 6 Xposition Yposition Zposition Zrotation Yrotation Xrotation 
	JOINT LHipJoint
	{
		OFFSET 0.000000 0.000000 0.000000
		CHANNELS 3 Zrotation Yrotation Xrotation
		JOINT LeftUpLeg
		{
			OFFSET 1.363060 -1.794630 0.839290
			CHANNELS 3 Zrotation Yrotation Xrotation
			JOINT LeftLeg
			{
				OFFSET 2.448110 -6.726130 0.000000
				CHANNELS 3 Zrotation Yrotation Xrotation
				JOINT LeftFoot
				{
					OFFSET 2.562200 -7.039590 0.000000
					CHANNELS 3 Zrotation Yrotation Xrotation
					JOINT LeftToeBase
					{
						OFFSET 0.157640 -0.433110 2.322550
						CHANNELS 3 Zrotation Yrotation Xrotation
						End Site
						{
							OFFSET 0.000000 0.000000 0.000000
						}
					}
				}
			}
		}
	}
	JOINT RHipJoint
	{
		OFFSET 0.000000 0.000000 0.000000
		CHANNELS 3 Zrotation Yrotation Xrotation
		JOINT RightUpLeg
		{
			OFFSET -1.305520 -1.794630 0.839290
			CHANNELS 3 Zrotation Yrotation Xrotation
			JOINT RightLeg
			{
				OFFSET -2.542530 -6.985550 0.000000
				CHANNELS 3 Zrotation Yrotation Xrotation
				JOINT RightFoot
				{
					OFFSET -2.568260 -7.056230 0.000000
					CHANNELS 3 Zrotation Yrotation Xrotation
					JOINT RightToeBase
					{
						OFFSET -0.164730 -0.452590 2.363150
						CHANNELS 3 Zrotation Yrotation Xrotation
						End Site
						{
							OFFSET 0.000000 0.000000 0.000000
						}
					}
				}
			}
		}
	}
	JOINT LowerBack
	{
		OFFSET 0.000000 0.000000 0.000000
		CHANNELS 3 Zrotation Yrotation Xrotation
		JOINT Spine
		{
			OFFSET 0.028270 2.035590 -0.193380
			CHANNELS 3 Zrotation Yrotation Xrotation
			JOINT Spine1
			{
				OFFSET 0.056720 2.048850 -0.042750
				CHANNELS 3 Zrotation Yrotation Xrotation
				JOINT Neck
				{
					OFFSET 0.000000 0.000000 0.000000
					CHANNELS 3 Zrotation Yrotation Xrotation
					JOINT Neck1
					{
						OFFSET -0.054170 1.746240 0.172020
						CHANNELS 3 Zrotation Yrotation Xrotation
						JOINT Head
						{
							OFFSET 0.104070 1.761360 -0.123970
							CHANNELS 3 Zrotation Yrotation Xrotation
							End Site
							{
								OFFSET 0.000000 0.000000 0.000000
							}
						}
					}
				}
				JOINT LeftShoulder
				{
					OFFSET 0.000000 0.000000 0.000000
					CHANNELS 3 Zrotation Yrotation Xrotation
					JOINT LeftArm
					{
						OFFSET 3.362410 1.200890 -0.311210
						CHANNELS 3 Zrotation Yrotation Xrotation
						JOINT LeftForeArm
						{
							OFFSET 4.983000 -0.000000 -0.000000
							CHANNELS 3 Zrotation Yrotation Xrotation
							JOINT LeftHand
							{
								OFFSET 3.483560 -0.000000 -0.000000
								CHANNELS 3 Zrotation Yrotation Xrotation
								JOINT LeftFingerBase
								{
									OFFSET 0.000000 0.000000 0.000000
									CHANNELS 3 Zrotation Yrotation Xrotation
									JOINT LeftHandIndex1
									{
										OFFSET 0.715260 -0.000000 -0.000000
										CHANNELS 3 Zrotation Yrotation Xrotation
										End Site
										{
											OFFSET 0.000000 0.000000 0.000000
										}
									}
								}
								JOINT LThumb
								{
									OFFSET 0.000000 0.000000 0.000000
									CHANNELS 3 Zrotation Yrotation Xrotation
									End Site
									{
										OFFSET 0.000000 0.000000 0.000000
									}
								}
							}
						}
					}
				}
				JOINT RightShoulder
				{
					OFFSET 0.000000 0.000000 0.000000
					CHANNELS 3 Zrotation Yrotation Xrotation
					JOINT RightArm
					{
						OFFSET -3.136600 1.374050 -0.404650
						CHANNELS 3 Zrotation Yrotation Xrotation
						JOINT RightForeArm
						{
							OFFSET -5.241900 -0.000000 -0.000000
							CHANNELS 3 Zrotation Yrotation Xrotation
							JOINT RightHand
							{
								OFFSET -3.444170 -0.000000 -0.000000
								CHANNELS 3 Zrotation Yrotation Xrotation
								JOINT RightFingerBase
								{
									OFFSET 0.000000 0.000000 0.000000
									CHANNELS 3 Zrotation Yrotation Xrotation
									JOINT RightHandIndex1
									{
										OFFSET -0.622530 -0.000000 -0.000000
										CHANNELS 3 Zrotation Yrotation Xrotation
										End Site
										{
											OFFSET 0.000000 0.000000 0.000000
										}
									}
								}
								JOINT RThumb
								{
									OFFSET 0.000000 0.000000 0.000000
									CHANNELS 3 Zrotation Yrotation Xrotation
									End Site
									{
										OFFSET 0.000000 0.000000 0.000000
									}
								}
							}
						}
					}
				}
			}
		}
	}
}
MOTION
Frames: 10
Frame Time: 0.008333
7.377603 15.689298 1.466771 125.730782 -86.633617 -95.667700 -9.696427 -2.940012 -3.013428 -12.281448 -2.659571 -66.961365 0.446761 5.270414 74.756378 3.362833 14.297010 -24.215231 -3.932800 -0.000000 -14.207399 8.623162 0.431025 -4.621963 14.649573 -2.676541 -41.885003 2.064559 -4.005687 56.817270 -4.032680 -8.755130 -37.354250 5.411400 -0.000000 -28.297100 1.744837 0.927908 10.983498 -0.076354 1.194061 -1.046950 -3.943442 1.217704 -1.811092 6.549111 -4.811736 -4.236291 -0.588044 -0.073070 0.517362 0.000000 0.000000 0.000000 9.690625 13.103302 1.602125 -65.067929 37.089867 32.960650 -179.945084 -86.810340 -179.995319 -1.867073 0.755877 -0.010847 0.071352 0.117664 -0.000000 0.000000 0.000000 0.000000 0.000000 0.000000 0.000000 -3.922181 1.784503 -2.167163 67.945958 11.506303 13.363600 179.932528 75.061669 179.887436 -14.865878 5.396766 -0.792619 0.302200 -0.564577 -0.000000 0.000000 0.000000 0.000000 0.000000 0.000000 0.000000 
7.164361 15.776705 1.448063 121.390119 -86.731576 -91.239632 -9.457910 -2.866022 -2.790668 -12.822733 -3.186691 -67.264351 0.193760 5.054195 72.247902 3.456067 14.364746 -24.131707 -3.921300 -0.000000 -14.114600 8.702032 0.333696 -4.600087 14.401682 -2.942976 -40.340584 2.142091 -3.838758 55.016481 -3.931792 -8.684888 -36.267808 5.164100 0.000000 -30.062900 1.421269 0.968000 10.726084 -0.145611 1.245834 -1.110167 -3.977420 1.271916 -1.807155 6.481822 -4.950204 -4.276418 -0.530458 -0.069044 0.516439 0.000000 0.000000 0.000000 9.990688 13.476312 1.527735 -63.963211 38.073328 33.954909 -179.918024 -86.000980 -179.995137 -2.135647 0.592485 -0.009292 0.076571 0.114173 -0.000000 0.000000 0.000000 0.000000 0.000000 0.000000 0.000000 -4.287389 1.697611 -2.233083 67.900755 11.592967 13.409491 179.924955 74.331657 179.888186 -14.613017 5.590793 -0.805900 0.299698 -0.574587 -0.000000 0.000000 0.000000 0.000000 0.000000 0.000000 0.000000 
6.948006 15.868428 1.430523 116.792142 -86.798861 -86.515966 -9.216353 -2.758004 -2.550285 -13.385967 -3.730531 -67.460399 -0.076638 4.819425 69.472328 3.540757 14.354558 -23.988630 -3.872900 0.000000 -14.081901 8.793397 0.245731 -4.582970 14.125434 -3.266567 -38.885067 2.206043 -3.678487 53.240689 -3.784457 -8.505438 -34.908587 4.819000 -0.000000 -32.419700 1.103789 1.006396 10.456352 -0.216711 1.294126 -1.176937 -4.019700 1.322306 -1.805563 6.408789 -5.120499 -4.323686 -0.479247 -0.065308 0.513374 0.000000 0.000000 0.000000 10.242352 13.815665 1.447407 -62.860042 38.957078 34.942111 -179.890653 -85.204563 -179.995104 -2.323509 0.485838 -0.008029 0.080307 0.110328 -0.000000 0.000000 0.000000 0.000000 0.000000 0.000000 0.000000 -4.627122 1.573589 -2.291581 67.939701 11.628783 13.488639 179.917544 73.643911 179.888984 -14.361300 5.812610 -0.821879 0.296830 -0.585116 -0.000000 0.000000 0.000000 0.000000 0.000000 0.000000 0.000000 
6.728844 15.963263 1.414381 112.337641 -86.826241 -81.900311 -8.978348 -2.616951 -2.292095 -13.962650 -4.285148 -67.541309 -0.362867 4.566722 66.429020 3.609884 14.245978 -23.754295 -3.774700 -0.000000 -14.156300 8.895098 0.166122 -4.575052 13.819712 -3.652755 -37.538478 2.252805 -3.529688 51.531500 -3.585866 -8.203850 -33.247060 4.374500 0.000000 -35.450200 0.785676 1.045932 10.179397 -0.290727 1.341126 -1.245261 -4.066501 1.371101 -1.803263 6.324576 -5.321143 -4.379414 -0.432884 -0.061720 0.507574 0.000000 0.000000 0.000000 10.443475 14.135733 1.363482 -61.778750 39.727404 35.909372 -179.863285 -84.422802 -179.995154 -2.454280 0.417503 -0.007060 0.083033 0.106493 -0.000000 0.000000 0.000000 0.000000 0.000000 0.000000 0.000000 -4.953378 1.414639 -2.344837 68.067583 11.624042 13.612542 179.911204 73.007126 179.889737 -14.123771 6.054629 -0.840357 0.293854 -0.595953 -0.000000 0.000000 0.000000 0.000000 0.000000 0.000000 0.000000 
6.507315 16.060089 1.399721 108.398194 -86.808305 -77.774834 -8.750111 -2.446602 -2.018988 -14.548774 -4.842497 -67.490420 -0.663166 4.295393 63.124996 3.656931 14.029635 -23.396229 -3.617400 0.000000 -14.387199 9.006041 0.093335 -4.583189 13.478520 -4.113732 -36.311200 2.280433 -3.398889 49.929597 -3.333012 -7.766300 -31.267510 3.837199 0.000000 -39.146800 0.458355 1.087433 9.906287 -0.369291 1.387677 -1.313406 -4.116037 1.419214 -1.802793 6.228171 -5.543452 -4.440159 -0.391351 -0.058325 0.499775 0.000000 0.000000 0.000000 10.587996 14.431481 1.277293 -60.743128 40.400718 36.823187 -179.835902 -83.646651 -179.995246 -2.548650 0.363144 -0.006187 0.085261 0.103135 -0.000000 0.000000 0.000000 0.000000 0.000000 0.000000 0.000000 -5.268515 1.231032 -2.392893 68.280476 11.584016 13.786733 179.906320 72.418992 179.890381 -13.908402 6.303343 -0.859933 0.291007 -0.606802 -0.000000 0.000000 0.000000 0.000000 0.000000 0.000000 0.000000 
6.283673 16.157371 1.386836 105.310751 -86.757412 -74.478990 -8.538848 -2.256694 -1.732290 -15.124654 -5.388955 -67.314095 -0.973585 4.005154 59.587953 3.676621 13.707333 -22.886138 -3.396500 0.000000 -14.833801 9.121675 0.022263 -4.607464 13.111605 -4.634793 -35.217522 2.286848 -3.291763 48.471140 -3.030493 -7.199832 -28.969628 3.229800 -0.000000 -43.444600 0.124865 1.132237 9.638989 -0.450977 1.435219 -1.380161 -4.165240 1.468127 -1.801355 6.115868 -5.779688 -4.506233 -0.353394 -0.055021 0.489762 0.000000 0.000000 0.000000 10.681402 14.718068 1.191521 -59.777703 40.972789 37.669141 -179.808699 -82.878231 -179.995341 -2.628840 0.308951 -0.005112 0.087468 0.100544 -0.000000 0.000000 0.000000 0.000000 0.000000 0.000000 0.000000 -5.583147 1.030872 -2.438463 68.575688 11.513772 14.016599 179.903788 71.880294 179.890902 -13.717178 6.552353 -0.880007 0.288311 -0.617456 -0.000000 0.000000 0.000000 0.000000 0.000000 0.000000 0.000000 
6.054621 16.251492 1.384636 85.401318 -86.851654 -54.304356 -8.331989 -2.130166 -1.219950 -15.192222 -6.758924 -67.086554 -1.187265 3.600186 55.921761 3.670127 13.345484 -22.046511 -3.073700 -0.000000 -15.652501 9.239904 -0.146774 -4.816609 13.213622 -6.008851 -34.295629 2.376689 -3.258515 46.999837 -2.685033 -6.468838 -26.403367 2.583200 0.000000 -48.051400 0.432113 0.959410 9.294633 -0.382399 1.265460 -1.451130 -4.202381 1.300167 -1.782258 5.934198 -6.025457 -4.581353 -0.316580 -0.051730 0.478864 0.000000 0.000000 0.000000 10.618585 14.889424 1.095584 -58.904435 41.466913 38.479114 -179.778237 -82.118257 -179.995335 -2.710312 0.235591 -0.003524 0.089494 0.100386 -0.000000 0.000000 0.000000 0.000000 0.000000 0.000000 0.000000 -5.997898 0.707760 -2.502646 68.871616 11.306832 14.296531 179.907417 71.342139 179.891665 -13.545397 6.792546 -0.899206 0.285300 -0.625817 -0.000000 0.000000 0.000000 0.000000 0.000000 0.000000 0.000000 
5.828157 16.345355 1.375486 85.071154 -86.745088 -53.751958 -8.175027 -1.929633 -0.921991 -15.708724 -7.237793 -66.663885 -1.501553 3.275839 52.045753 3.630073 12.877223 -21.198400 -2.746401 0.000000 -16.633799 9.351425 -0.220002 -4.879846 12.805197 -6.620287 -33.470244 2.339858 -3.210126 45.925049 -2.311401 -5.670550 -23.565096 1.939100 -0.000001 -52.812100 0.074371 1.012753 9.064393 -0.471184 1.317830 -1.510070 -4.246813 1.353746 -1.781326 5.793160 -6.253425 -4.650348 -0.286311 -0.048764 0.466081 0.000000 0.000000 0.000000 10.632321 15.163606 1.016785 -58.152619 41.876992 39.122495 -179.751956 -81.370240 -179.995400 -2.796809 0.132175 -0.001054 0.092593 0.100274 -0.000000 0.000000 0.000000 0.000000 0.000000 0.000000 0.000000 -6.310136 0.514376 -2.545013 69.299708 11.185821 14.631408 179.910290 70.887845 179.892067 -13.383610 7.012042 -0.915980 0.282493 -0.635264 -0.000000 0.000000 0.000000 0.000000 0.000000 0.000000 0.000000 
5.600989 16.435394 1.368207 85.759273 -86.670947 -54.222955 -8.042865 -1.742303 -0.627684 -16.168664 -7.656145 -66.148500 -1.810333 2.932658 48.102555 3.563189 12.381099 -20.206419 -2.388800 0.000001 -17.897399 9.465027 -0.295527 -4.957419 12.394129 -7.238526 -32.778576 2.282089 -3.196079 45.079550 -1.927540 -4.790333 -20.547835 1.339600 -0.000000 -57.351900 -0.275293 1.070263 8.857492 -0.558136 1.374296 -1.563810 -4.287608 1.411404 -1.779629 5.638862 -6.459518 -4.720767 -0.259880 -0.045967 0.451843 0.000000 0.000000 0.000000 10.622408 15.444285 0.946067 -57.540279 42.213144 39.644254 -179.726873 -80.644865 -179.995445 -2.894270 -0.007405 0.002516 0.096328 0.101699 -0.000000 0.000000 0.000000 0.000000 0.000000 0.000000 0.000000 -6.623370 0.343411 -2.588114 69.779424 11.046834 15.009721 179.915919 70.468440 179.892553 -13.217276 7.207958 -0.928755 0.279166 -0.643860 -0.000000 0.000000 0.000000 0.000000 0.000000 0.000000 0.000000 
5.373597 16.520304 1.362669 87.531497 -86.639612 -55.791444 -7.934598 -1.575212 -0.345040 -16.560129 -7.997324 -65.563586 -2.107305 2.574754 44.172770 3.475902 11.892994 -19.114079 -2.022200 0.000000 -19.417100 9.580267 -0.369199 -5.046021 11.987369 -7.837651 -32.210481 2.203112 -3.213016 44.478029 -1.553022 -3.859247 -17.430861 0.823200 0.000000 -61.402200 -0.614361 1.133938 8.678861 -0.642550 1.437053 -1.610835 -4.324099 1.475391 -1.775838 5.473402 -6.633674 -4.793337 -0.237440 -0.043331 0.435835 0.000000 0.000000 0.000000 10.602256 15.741351 0.886908 -57.085092 42.473475 40.037102 -179.703712 -79.956463 -179.995476 -3.000057 -0.184304 0.007484 0.100635 0.104709 -0.000000 0.000000 0.000000 0.000000 0.000000 0.000000 0.000000 -6.935824 0.206116 -2.633191 70.301786 10.896445 15.421556 179.924097 70.080535 179.893235 -13.031017 7.376793 -0.936136 0.274908 -0.651494 -0.000000 0.000000 0.000000 0.000000 0.000000 0.000000 0.000000 
